# xmcd
#
# Track frame offsets: 
#        150
#        16310
#        32845
#        50382
#        76092
#        93436
#        112497
#        135518
#        152318
#        176041
#        198425
#        211646
#
# Disc length: 3153 seconds
#
# Revision: 0
# Processed by: cddbd v1.5.2PL0 Copyright (c) Steve Scherf et al.
# Submitted via: ExactAudioCopyFreeDBPlugin 1.0
#
DISCID=930c4f0c
DTITLE=Resentments - Ghost Ships
DYEAR=2013
DGENRE=Country-Rock
TTITLE0=Nothin I Can Do
TTITLE1=Space Between
TTITLE2=Love Ain't Thru with You
TTITLE3=Trouble Find Me
TTITLE4=Everybody Freeze
TTITLE5=All Night Long
TTITLE6=Ghost Ship
TTITLE7=Mystified
TTITLE8=Cool
TTITLE9=Lookout Mountain
TTITLE10=Perfect as a Photograph
TTITLE11=Time Won't Heal Me
EXTD=
EXTT0=
EXTT1=
EXTT2=
EXTT3=
EXTT4=
EXTT5=
EXTT6=
EXTT7=
EXTT8=
EXTT9=
EXTT10=
EXTT11=
PLAYORDER=
